<?xml version="1.0" standalone="no"?>
<!DOCTYPE svg PUBLIC "-//W3C//DTD SVG 20010904//EN"
 "http://www.w3.org/TR/2001/REC-SVG-20010904/DTD/svg10.dtd">
<svg version="1.0" xmlns="http://www.w3.org/2000/svg"
 width="300.000000pt" height="300.000000pt" viewBox="0 0 300.000000 300.000000"
 preserveAspectRatio="xMidYMid meet">

<g transform="translate(0.000000,300.000000) scale(0.100000,-0.100000)"
fill="currentColor" stroke="none">
<path d="M0 2705 c1 -224 4 -294 13 -292 7 1 11 -6 11 -15 -2 -20 21 -24 32
-6 5 7 3 8 -6 3 -8 -5 -11 -3 -8 6 7 20 39 12 65 -17 17 -19 32 -24 69 -24 36
0 45 3 41 14 -4 10 4 18 24 25 34 12 59 5 59 -15 0 -8 7 -14 15 -14 20 0 19
13 -3 33 -24 22 -57 21 -110 -3 -35 -16 -47 -17 -63 -7 -10 6 -19 15 -19 18 0
4 30 12 68 18 103 18 259 73 265 94 8 26 37 21 37 -6 0 -23 -58 -87 -79 -87
-12 0 -35 -29 -28 -36 8 -8 97 54 104 72 3 8 10 14 15 14 7 0 6 -5 -1 -13 -6
-8 -8 -17 -4 -20 13 -14 28 -6 40 20 11 22 10 29 -2 43 -17 18 -21 80 -5 80
18 0 89 100 110 157 35 93 18 92 -30 -3 -50 -99 -128 -188 -175 -200 -17 -3
-39 -14 -50 -23 -42 -35 -130 -67 -140 -50 -4 5 1 9 9 9 9 0 16 5 16 11 0 18
-24 4 -35 -19 -6 -14 -19 -22 -35 -23 -14 0 -36 -2 -50 -5 -14 -2 -20 -1 -14
3 6 5 14 18 18 31 4 12 14 22 22 22 8 0 19 11 26 24 11 26 41 46 32 22 -6 -17
27 -31 36 -16 5 8 12 6 24 -5 9 -10 19 -15 23 -12 3 3 -6 17 -20 31 -17 17
-23 32 -20 50 6 31 -9 34 -28 6 -17 -24 -59 -35 -59 -15 0 7 6 16 13 19 6 3 0
3 -15 0 -35 -8 -35 -1 -1 31 15 14 24 25 20 25 -4 0 1 8 11 18 9 11 22 16 27
13 6 -2 3 4 -5 14 -11 14 -12 19 -3 22 24 8 13 20 -14 17 -18 -2 -15 0 10 7
28 8 37 16 37 32 0 12 5 29 11 37 9 13 10 12 5 -2 -3 -12 0 -18 10 -18 11 0
15 6 12 18 -3 10 1 27 8 37 8 10 14 14 14 9 0 -6 -5 -15 -12 -22 -9 -9 -7 -12
11 -12 12 0 19 4 16 10 -3 6 2 10 12 11 10 0 13 3 6 5 -8 4 -9 13 -1 35 5 16
14 26 19 23 5 -3 7 -10 4 -15 -4 -5 -2 -9 3 -9 6 0 13 7 16 16 9 22 8 24 -9
18 -8 -4 -15 -1 -15 5 0 6 -6 8 -14 5 -8 -3 -17 -1 -21 5 -11 19 -23 12 -19
-11 4 -16 1 -14 -9 7 -13 29 -14 29 -21 8 -8 -26 -39 -55 -34 -32 2 8 7 17 12
21 16 11 15 56 -1 62 -11 4 -13 2 -9 -9 4 -11 -2 -15 -22 -15 -24 1 -25 2 -10
14 15 11 9 13 -42 13 -51 0 -59 -2 -65 -21 -7 -20 -7 -20 -15 4 -4 14 -8 19
-9 13 -1 -7 -6 -13 -12 -13 -5 0 -7 6 -3 13 4 6 -3 3 -17 -8 -18 -15 -20 -16
-10 -2 12 15 10 17 -23 17 l-36 0 0 -295z m220 165 c0 -5 -2 -10 -4 -10 -3 0
-8 5 -11 10 -3 6 -1 10 4 10 6 0 11 -4 11 -10z m80 -5 c0 -8 -9 -19 -19 -24
-17 -10 -18 -9 -7 14 12 28 26 33 26 10z m-50 -24 c3 -1 -2 -5 -10 -10 -15
-10 -30 -6 -30 9 0 4 8 7 18 5 9 -2 19 -4 22 -4z m-120 -291 c12 -8 11 -10 -7
-10 -13 0 -23 5 -23 10 0 13 11 13 30 0z m-93 -6 c-3 -3 -12 -4 -19 -1 -8 3
-5 6 6 6 11 1 17 -2 13 -5z m63 -81 c0 -18 -17 -16 -24 3 -8 22 4 40 15 23 5
-8 9 -20 9 -26z"/>
<path d="M316 2987 c3 -10 9 -15 12 -12 3 3 0 11 -7 18 -10 9 -11 8 -5 -6z"/>
<path d="M448 2972 c22 -30 22 -28 -12 -174 -9 -36 -16 -70 -15 -75 1 -12 58
110 59 125 0 9 15 11 58 7 53 -4 54 -4 14 5 -58 12 -65 18 -59 49 6 30 -27 91
-49 91 -12 0 -11 -5 4 -28z"/>
<path d="M2620 2981 c0 -10 6 -21 13 -24 10 -4 13 2 9 19 -5 28 -22 32 -22 5z"/>
<path d="M353 2974 c-9 -9 -10 -15 -2 -20 14 -8 30 8 21 22 -5 9 -10 8 -19 -2z"/>
<path d="M1644 2973 c1 -12 -5 -17 -16 -15 -12 2 -16 -2 -12 -13 8 -20 21 -19
34 4 12 24 13 41 1 41 -5 0 -8 -8 -7 -17z"/>
<path d="M1885 2970 c3 -5 12 -10 20 -10 8 0 17 5 20 10 4 6 -5 10 -20 10 -15
0 -24 -4 -20 -10z"/>
<path d="M1666 2954 c-4 -9 -4 -19 -1 -22 2 -3 7 3 11 12 4 9 4 19 1 22 -2 3
-7 -3 -11 -12z"/>
<path d="M1785 2948 c-16 -5 -37 -12 -45 -15 -8 -4 -20 -5 -25 -5 -6 1 -11 -7
-12 -18 -2 -25 9 -26 24 -1 6 10 28 21 47 25 19 4 38 11 41 16 4 6 5 10 3 9
-2 0 -16 -5 -33 -11z"/>
<path d="M2802 2944 c-6 -7 -12 -21 -12 -30 0 -10 -5 -14 -15 -10 -10 3 -18
-1 -22 -11 -4 -9 -1 -19 5 -21 7 -2 12 -12 12 -21 0 -10 8 -19 18 -20 38 -4
87 0 95 8 12 12 0 31 -18 31 -7 0 -16 12 -20 27 -3 14 -12 34 -18 43 -10 15
-14 15 -25 4z"/>
<path d="M1500 2930 c-12 -7 -8 -10 15 -10 17 0 37 5 45 10 12 7 8 10 -15 10
-16 0 -37 -5 -45 -10z"/>
<path d="M1773 2899 c-70 -39 -90 -59 -58 -59 8 0 22 8 32 19 10 10 37 30 61
45 23 14 42 28 42 31 0 7 2 8 -77 -36z"/>
<path d="M1381 2925 c0 -5 6 -21 14 -35 8 -14 14 -20 14 -15 0 6 -6 21 -14 35
-8 14 -14 21 -14 15z"/>
<path d="M1442 2918 c-7 -7 -12 -16 -12 -20 0 -15 15 -8 28 12 13 22 3 27 -16
8z"/>
<path d="M2476 2912 c-3 -6 -1 -14 5 -17 14 -9 20 -2 10 14 -6 8 -11 9 -15 3z"/>
<path d="M1490 2895 c0 -12 5 -26 12 -33 6 -6 8 -15 4 -19 -4 -4 -10 -3 -14 3
-4 6 -21 15 -37 21 l-30 10 3 -39 c4 -36 0 -43 -42 -82 -25 -24 -46 -49 -46
-56 0 -8 -7 -22 -16 -32 -14 -14 -14 -20 -4 -33 7 -8 10 -15 6 -15 -9 0 22
-72 41 -92 8 -10 20 -15 26 -11 6 3 7 1 3 -5 -4 -7 -2 -12 3 -12 6 0 11 -6 11
-13 0 -6 15 -18 33 -26 17 -8 49 -28 69 -45 71 -59 93 -73 131 -80 30 -6 37
-4 37 9 0 8 8 15 18 15 16 0 83 -40 109 -66 7 -7 29 -22 50 -35 21 -12 44 -29
50 -37 7 -9 16 -12 20 -8 5 4 0 13 -10 20 -9 7 -17 17 -17 21 0 4 -14 25 -31
46 -17 21 -28 39 -26 39 11 0 178 -173 173 -178 -3 -3 -15 3 -26 13 -11 10
-23 15 -27 11 -5 -4 0 -12 9 -17 9 -5 25 -17 34 -27 17 -16 17 -17 0 -20 -13
-3 -15 -7 -5 -18 6 -8 16 -14 22 -14 6 0 19 -8 29 -17 16 -15 21 -15 28 -3 5
8 12 11 17 7 4 -5 1 -12 -7 -17 -13 -8 -13 -12 3 -27 16 -16 17 -16 17 7 0 23
4 21 45 -25 42 -47 57 -74 35 -60 -21 13 -8 -11 15 -28 22 -15 25 -16 25 -2 0
21 9 19 37 -7 13 -12 25 -19 29 -16 3 3 -6 14 -21 25 -52 36 -89 72 -83 78 3
3 13 -1 22 -10 32 -33 35 -9 3 32 -18 24 -38 40 -45 38 -18 -7 -69 30 -77 55
-4 11 -12 20 -19 20 -13 0 -148 131 -154 150 -2 5 6 18 18 30 17 17 19 24 9
36 -10 12 -14 12 -22 2 -6 -9 -7 -7 -3 6 4 10 2 24 -4 31 -6 7 -9 17 -8 23 2
5 -8 22 -22 38 -14 16 -37 49 -52 74 -31 54 -143 154 -160 144 -8 -5 -9 -2 -4
12 16 38 18 54 7 54 -6 0 -11 -6 -11 -14 0 -8 -4 -17 -9 -20 -4 -3 -5 13 -1
37 3 23 5 60 4 82 -1 22 -3 46 -3 53 -1 6 -5 12 -10 12 -5 0 -7 -9 -4 -19 11
-44 -37 -82 -77 -61 -14 8 -26 8 -41 0 -17 -10 -20 -9 -17 7 2 10 5 20 8 23 3
3 -2 21 -12 40 -13 26 -17 30 -18 15z m110 -380 c0 -9 -6 -12 -15 -9 -8 4 -15
10 -15 15 0 5 7 9 15 9 8 0 15 -7 15 -15z m-115 -12 c0 -6 3 -15 8 -19 4 -4 7
-13 7 -21 0 -11 -4 -11 -20 -1 -22 14 -28 62 -7 56 6 -3 12 -10 12 -15z m95
-48 c6 3 7 -1 4 -9 -5 -12 0 -16 17 -16 29 -1 63 -20 67 -37 4 -24 -32 -13
-85 23 -29 20 -53 40 -53 44 0 5 -3 17 -7 27 -4 12 2 9 20 -10 15 -15 32 -25
37 -22z m105 -15 c3 -6 -1 -7 -9 -4 -18 7 -21 14 -7 14 6 0 13 -4 16 -10z
m-25 -85 c16 -19 0 -19 -26 0 -16 12 -16 14 -3 15 9 0 22 -7 29 -15z m525
-315 c3 -5 1 -10 -4 -10 -6 0 -11 5 -11 10 0 6 2 10 4 10 3 0 8 -4 11 -10z"/>
<path d="M1570 2895 c0 -8 9 -15 20 -15 24 0 27 15 4 24 -22 9 -24 8 -24 -9z"/>
<path d="M2282 2863 c-11 -26 -23 -66 -26 -88 -4 -26 4 -10 23 45 33 95 34
115 3 43z"/>
<path d="M390 2850 c0 -5 4 -10 9 -10 6 0 13 5 16 10 3 6 -1 10 -9 10 -9 0
-16 -4 -16 -10z"/>
<path d="M1681 2804 c0 -11 3 -14 6 -6 3 7 2 16 -1 19 -3 4 -6 -2 -5 -13z"/>
<path d="M2874 2803 c9 -17 -34 -29 -45 -12 -6 10 -9 5 -9 -14 0 -26 3 -28 32
-25 20 2 33 -2 36 -11 3 -9 -2 -11 -14 -8 -60 16 -72 16 -94 -3 -13 -11 -20
-20 -15 -20 4 0 1 -7 -6 -17 -8 -9 -12 -19 -9 -22 3 -3 -4 -7 -15 -10 -30 -5
-35 -22 -17 -55 16 -30 17 -30 20 -7 2 13 8 29 13 35 5 6 20 25 34 43 22 28
31 31 58 27 18 -4 45 -15 60 -26 17 -11 35 -17 47 -13 26 8 26 -11 0 -25 -17
-9 -18 -14 -8 -36 l12 -25 22 43 c13 24 23 51 24 61 0 17 -6 20 -50 21 -24 1
-57 44 -42 56 4 3 -4 16 -17 30 -13 14 -21 20 -17 13z"/>
<path d="M2750 2790 c0 -5 5 -10 10 -10 6 0 10 5 10 10 0 6 -4 10 -10 10 -5 0
-10 -4 -10 -10z"/>
<path d="M2425 2780 c-3 -5 1 -10 10 -10 9 0 13 5 10 10 -3 6 -8 10 -10 10 -2
0 -7 -4 -10 -10z"/>
<path d="M2540 2777 c0 -7 9 -13 20 -14 11 -1 20 0 20 2 0 2 -9 9 -20 15 -15
8 -20 8 -20 -3z"/>
<path d="M2700 2781 c0 -6 9 -9 20 -8 11 1 20 5 20 9 0 4 -9 8 -20 8 -11 0
-20 -4 -20 -9z"/>
<path d="M2743 2744 c-18 -14 -33 -30 -33 -36 0 -6 7 -5 16 3 9 7 25 18 37 24
21 10 35 35 20 35 -4 0 -23 -12 -40 -26z"/>
<path d="M2644 2726 c11 -9 24 -16 30 -16 12 0 7 5 -24 19 -24 11 -24 11 -6
-3z"/>
<path d="M2347 2669 c-3 -12 -3 -43 0 -67 4 -31 3 -43 -4 -39 -6 4 -14 0 -17
-8 -3 -9 1 -18 9 -21 8 -4 15 -14 15 -24 0 -13 -5 -17 -20 -13 -12 3 -20 0
-20 -6 0 -7 5 -9 11 -5 6 3 15 1 19 -5 5 -10 15 -9 41 1 28 12 38 12 59 1 26
-13 60 -17 60 -7 0 10 -28 34 -41 34 -8 0 -8 4 -2 13 18 22 24 68 12 84 -11
13 -15 11 -30 -9 l-18 -23 -15 35 c-9 19 -24 46 -34 59 l-19 24 -6 -24z"/>
<path d="M2666 2655 c-8 -9 -18 -32 -22 -51 -9 -49 3 -160 22 -196 9 -17 13
-32 10 -36 -3 -3 -6 0 -6 8 0 10 -3 10 -15 0 -9 -8 -15 -8 -15 -2 0 6 6 13 13
16 10 5 10 7 0 12 -7 3 -13 14 -13 24 0 9 -6 23 -14 29 -21 18 -30 -33 -12
-70 16 -33 6 -45 -25 -29 -11 7 -23 9 -27 6 -3 -3 0 -6 8 -6 10 0 10 -3 0 -15
-7 -8 -18 -15 -26 -15 -15 0 -114 -49 -99 -50 5 0 79 22 165 49 85 27 176 55
203 61 26 7 47 17 47 22 0 11 -61 0 -122 -22 l-47 -18 -10 29 c-6 16 -8 36 -5
43 3 8 1 17 -5 21 -6 3 -11 21 -11 40 0 27 4 34 23 38 l22 4 -23 8 c-20 6 -22
12 -17 39 4 17 13 41 21 54 16 25 3 30 -20 7z"/>
<path d="M2858 2663 c-17 -4 -33 -32 -23 -41 3 -3 5 0 5 6 0 15 32 16 47 1 7
-7 13 -7 17 -1 8 13 -26 39 -46 35z"/>
<path d="M231 2624 c0 -11 3 -14 6 -6 3 7 2 16 -1 19 -3 4 -6 -2 -5 -13z"/>
<path d="M2841 2608 c-1 -12 31 -89 35 -85 3 2 -4 24 -15 48 -11 24 -20 41
-20 37z"/>
<path d="M2920 2558 c0 -17 -7 -28 -17 -32 -11 -3 -8 -4 7 -3 27 2 39 32 21
50 -8 8 -11 4 -11 -15z"/>
<path d="M1205 2549 c-4 -6 -5 -12 -2 -15 2 -3 7 2 10 11 7 17 1 20 -8 4z"/>
<path d="M1188 2500 c-7 -24 -3 -38 8 -28 3 4 4 17 2 30 l-3 23 -7 -25z"/>
<path d="M2965 2510 c3 -5 10 -10 16 -10 5 0 9 5 9 10 0 6 -7 10 -16 10 -8 0
-12 -4 -9 -10z"/>
<path d="M710 2503 c0 -2 11 -21 25 -43 14 -22 25 -43 25 -46 0 -4 18 -31 41
-61 41 -55 73 -128 63 -144 -3 -6 -14 -7 -24 -4 -10 3 -21 1 -25 -5 -3 -5 -18
-10 -33 -9 l-27 1 29 13 c26 11 27 13 10 18 -41 13 -83 -7 -125 -58 l-42 -50
6 38 c3 22 2 35 -4 32 -5 -4 -9 -26 -9 -51 0 -36 -3 -44 -18 -44 -52 0 -93
-210 -58 -295 8 -18 12 -43 9 -54 -4 -16 -1 -19 16 -14 19 5 21 1 21 -45 0
-28 -5 -54 -12 -58 -8 -5 -9 2 -5 24 4 17 2 34 -3 37 -6 4 -10 -13 -10 -39 0
-25 3 -45 8 -45 18 3 32 -2 32 -11 0 -5 -9 -10 -20 -10 -14 0 -20 -7 -20 -24
0 -13 -7 -36 -15 -52 -10 -19 -11 -30 -4 -35 6 -3 2 -9 -10 -12 -12 -3 -21
-10 -21 -16 0 -6 8 -7 17 -4 17 7 17 5 0 -20 -10 -15 -15 -32 -12 -36 10 -18
-8 -41 -34 -42 -24 -2 -24 -2 -3 -6 13 -3 22 -8 20 -12 -2 -3 -16 -40 -31 -81
-31 -83 -77 -151 -77 -115 0 12 5 26 10 31 7 7 6 11 -3 11 -8 0 -23 -14 -32
-30 -10 -17 -13 -27 -6 -23 14 9 15 -19 0 -46 -6 -11 -50 -64 -97 -117 -48
-53 -99 -112 -113 -131 l-26 -35 -17 57 c-20 68 -20 66 0 70 15 3 59 88 45 88
-4 0 -13 -11 -19 -25 -16 -35 -37 -31 -56 9 -21 44 -20 58 5 100 17 30 18 36
6 36 -9 0 -19 -9 -22 -21 -11 -33 -22 -11 -44 81 l-21 85 5 -87 c2 -48 9 -96
14 -106 6 -11 17 -50 25 -89 8 -38 26 -97 40 -131 14 -34 26 -65 26 -70 0 -5
-12 -22 -26 -37 -21 -23 -28 -25 -36 -14 -7 10 -8 8 -3 -7 3 -13 0 -28 -8 -36
-21 -21 -37 -54 -37 -79 0 -21 1 -22 20 -4 11 10 20 22 20 27 0 5 12 22 27 38
16 15 48 52 73 80 63 74 100 110 111 110 5 0 9 6 9 14 0 8 11 23 25 34 14 11
25 25 25 31 0 6 5 11 11 11 7 0 4 -11 -6 -28 -51 -78 -49 -73 -31 -66 9 3 16
11 16 17 0 6 3 7 6 4 4 -4 -1 -18 -10 -32 -13 -19 -21 -24 -30 -16 -9 8 -22
-3 -49 -39 -45 -60 -33 -68 13 -10 18 23 35 39 37 36 3 -3 -1 -12 -8 -20 -8
-8 -44 -61 -81 -118 -37 -58 -92 -131 -123 -164 -33 -35 -55 -68 -55 -81 0
-13 2 -23 4 -23 2 0 30 35 62 77 33 43 87 110 121 150 65 75 74 89 47 79 -17
-7 -13 2 22 51 13 17 24 34 24 38 0 3 14 20 30 38 l30 32 -10 -31 c-6 -18 -27
-50 -46 -72 -37 -44 -42 -57 -18 -48 10 4 5 -8 -13 -31 -63 -82 -152 -257
-186 -368 -13 -44 -34 -112 -46 -151 -22 -73 -28 -174 -11 -174 10 0 24 44 22
72 0 10 8 23 19 28 10 6 19 20 19 30 0 11 5 20 10 20 14 0 13 0 -15 -76 -30
-79 -29 -76 -9 -72 11 2 28 38 50 108 45 137 65 180 82 180 8 0 12 -6 9 -14
-4 -11 -1 -13 10 -9 18 7 15 0 -19 -49 -10 -14 -15 -33 -12 -42 3 -9 -5 -27
-20 -43 -26 -28 -35 -63 -16 -63 6 0 10 -7 10 -15 0 -8 -4 -15 -9 -15 -5 0 -7
-9 -4 -20 5 -19 14 -20 274 -20 l268 0 6 47 c12 88 26 105 21 26 -3 -40 -1
-73 3 -73 11 0 21 36 21 72 0 14 3 34 6 42 6 15 8 15 19 -1 23 -31 25 -10 4
37 -11 24 -18 58 -17 75 l4 30 11 -25 c7 -14 30 -43 52 -64 44 -43 51 -67 24
-88 -10 -8 -31 -28 -47 -46 l-30 -32 81 0 c70 0 81 2 86 19 2 11 23 24 50 34
26 8 56 25 69 36 27 26 69 27 91 3 9 -10 23 -34 32 -55 8 -20 20 -37 25 -37 6
0 10 2 10 5 0 13 -41 85 -65 113 -32 38 -54 89 -76 177 -11 44 -17 60 -18 41
-1 -25 -4 -28 -28 -23 -38 7 -53 -1 -53 -30 0 -22 1 -23 16 -9 8 9 28 16 43
16 24 0 30 -5 35 -32 3 -17 2 -34 -2 -37 -5 -3 -11 -14 -15 -24 -9 -23 -37
-33 -47 -16 -5 7 -6 17 -4 21 3 4 -4 18 -15 29 -18 20 -21 20 -27 6 -3 -9 -4
-37 -2 -63 l3 -46 -31 5 c-17 3 -36 1 -42 -5 -12 -12 -44 31 -76 104 -35 80
-41 115 -22 143 20 30 40 33 33 5 -4 -14 0 -20 12 -20 10 0 25 -15 34 -32 12
-26 16 -29 16 -12 1 11 -4 25 -11 32 -26 26 -50 165 -27 160 6 -2 12 17 13 43
2 25 8 54 14 65 14 28 33 114 27 124 -3 5 -1 11 5 15 6 4 8 10 5 15 -6 10 12
199 21 224 12 30 24 -3 24 -65 0 -76 10 -119 26 -119 8 0 14 4 14 9 0 16 38
19 59 4 18 -12 21 -25 21 -78 0 -35 4 -66 9 -70 6 -3 8 17 5 50 -2 30 0 55 5
55 13 0 71 -69 71 -85 0 -7 5 -17 10 -20 15 -9 3 34 -25 89 -13 25 -26 40 -28
34 -3 -7 -3 3 0 23 3 21 1 39 -6 43 -16 11 -14 21 14 54 22 27 30 29 65 25 27
-4 40 -2 40 6 0 7 5 9 11 5 7 -4 9 -21 6 -43 l-6 -36 20 28 c24 32 39 35 39 7
0 -11 -4 -20 -10 -20 -18 0 -10 -26 15 -50 13 -12 29 -38 35 -56 7 -19 18 -34
25 -34 7 0 18 -12 23 -27 l10 -28 1 27 c1 18 -6 31 -19 38 -16 9 -20 20 -19
49 2 25 -4 48 -18 67 -11 16 -18 35 -16 42 3 6 0 12 -7 12 -25 0 -46 36 -48
80 -1 53 11 70 50 70 29 0 30 -2 24 -31 -5 -24 -1 -35 20 -56 26 -26 27 -26
40 -8 10 14 12 36 8 85 -8 83 -22 110 -16 32 3 -39 0 -62 -8 -67 -7 -4 -10 -2
-9 6 1 8 -1 23 -5 34 -5 11 -10 26 -12 32 -2 7 -10 10 -19 7 -8 -3 -15 -1 -15
5 0 6 -17 11 -39 11 -22 0 -44 6 -51 15 -9 11 -10 15 -1 15 7 0 -16 28 -51 63
-77 75 -122 138 -139 195 -11 39 -10 46 13 95 14 28 29 63 33 76 17 55 87 98
119 72 7 -6 20 -10 27 -8 8 2 11 2 7 0 -7 -4 56 -92 73 -103 11 -8 59 -112 59
-131 0 -8 9 -50 20 -93 12 -43 18 -81 16 -84 -3 -3 -2 -10 3 -16 4 -6 16 -36
26 -66 10 -30 27 -68 38 -85 10 -16 16 -21 13 -10 -4 10 -10 40 -13 65 -3 25
-12 53 -20 62 -8 9 -12 22 -7 29 4 7 3 10 -3 6 -14 -9 -31 90 -31 176 1 85 14
96 24 20 6 -50 27 -113 38 -113 2 0 1 19 -1 43 -7 61 26 133 65 141 15 4 41
18 57 32 21 17 23 22 8 15 -28 -14 -66 -14 -58 -1 3 6 14 10 24 10 11 0 29 9
42 20 21 18 22 19 4 14 -17 -5 -17 -3 4 13 13 10 37 30 53 45 36 34 112 61
149 53 15 -4 34 -17 43 -30 8 -13 29 -26 46 -30 64 -14 96 -38 91 -68 -3 -16
40 -66 73 -86 18 -12 48 -21 65 -21 19 0 30 -4 26 -10 -4 -6 -10 -8 -15 -5 -5
3 -11 1 -14 -4 -4 -5 12 -9 38 -8 24 1 42 5 40 8 -2 4 3 12 12 19 8 7 13 19
10 26 -4 10 1 11 20 3 28 -10 44 -5 44 15 0 8 9 16 20 19 26 7 26 37 -1 66
-17 18 -22 38 -24 88 -1 35 -5 67 -9 70 -6 7 -10 -19 -7 -49 1 -10 -3 -18 -8
-18 -6 0 -11 -10 -11 -22 0 -19 -2 -20 -10 -8 -5 8 -10 11 -10 5 0 -12 -20 16
-20 29 0 5 7 3 15 -4 18 -15 19 -1 1 22 -7 10 -16 15 -19 11 -4 -3 -12 7 -18
23 l-11 29 -13 -30 c-13 -30 -13 -30 -22 -7 -5 13 -13 24 -18 25 -6 1 -9 7 -9
14 1 7 -7 15 -17 18 -11 4 -19 11 -19 16 0 5 0 12 0 17 0 14 25 7 38 -10 18
-24 30 -23 35 5 4 20 4 20 6 -3 1 -26 6 -29 91 -58 8 -3 3 5 -12 17 -16 12
-28 29 -28 38 0 8 -14 32 -32 52 -18 20 -29 28 -25 18 4 -11 5 -23 1 -28 -3
-5 -19 18 -36 51 -29 55 -48 75 -48 50 0 -7 -13 -8 -34 -5 -20 4 -36 2 -40 -4
-13 -21 -37 -11 -52 22 -14 31 -15 31 -9 4 4 -21 2 -28 -7 -25 -7 3 -14 10
-14 16 -1 7 -2 17 -3 23 0 6 -8 8 -17 5 -9 -3 -12 -2 -9 5 4 5 1 16 -5 24 -7
8 -10 23 -8 33 3 11 2 41 -2 68 -5 27 -4 53 1 58 14 15 11 22 -16 34 -14 7
-31 16 -38 22 -75 60 -128 100 -132 100 -3 0 -5 -4 -5 -10 0 -5 5 -10 11 -10
16 0 74 -51 74 -66 0 -17 54 -66 66 -58 5 3 6 10 3 16 -4 6 2 6 15 -1 24 -13
29 -26 5 -17 -16 6 -15 -9 2 -121 4 -26 2 -32 -10 -27 -8 3 -19 18 -25 32 -6
18 -10 21 -10 10 -1 -18 -21 -26 -21 -9 0 5 -10 12 -22 15 -44 12 -60 32 -53
65 4 17 13 31 20 31 10 0 25 20 25 35 0 2 -14 10 -31 19 -27 13 -29 13 -19 0
7 -8 10 -17 7 -21 -7 -6 -49 35 -66 64 -5 10 -12 15 -16 11 -7 -6 44 -83 58
-86 10 -3 10 -8 3 -43 -5 -28 -9 -30 -32 -25 -19 5 -24 4 -18 -6 5 -7 -3 -5
-16 4 -44 32 -87 46 -156 53 -77 9 -122 25 -144 52 -16 20 -19 31 -25 103 -3
25 -9 65 -14 90 -9 38 -9 32 -5 -35 4 -43 10 -90 15 -103 13 -34 -12 -59 -34
-34 -27 32 -36 59 -31 98 5 37 4 38 -8 16 -8 -12 -17 -19 -21 -16 -13 14 5
-91 22 -127 l17 -37 -38 -5 c-21 -3 -55 -19 -77 -36 l-38 -31 -23 20 c-13 11
-26 20 -29 20 -3 0 -19 12 -34 26 l-28 26 31 30 31 29 -25 23 c-27 23 -34 50
-15 62 8 4 7 9 -2 15 -9 6 -18 3 -27 -8 -9 -13 -15 -14 -24 -5 -7 7 -28 12
-47 12 -31 0 -44 9 -99 68 -34 37 -72 68 -82 68 -11 1 -20 0 -20 -3z m320
-232 c0 -5 -7 -11 -15 -15 -9 -3 -15 0 -15 9 0 8 7 15 15 15 8 0 15 -4 15 -9z
m300 -84 c11 -4 9 -6 -6 -6 -23 -1 -45 20 -63 59 -10 20 -5 18 21 -11 18 -20
40 -39 48 -42z m-490 -11 c0 -2 -9 -6 -20 -9 -11 -3 -18 -1 -14 4 5 9 34 13
34 5z m430 -3 c0 -10 -58 -43 -75 -43 -7 0 -15 -5 -17 -12 -5 -13 -38 -4 -38
11 0 17 65 51 98 51 17 0 32 -3 32 -7z m270 -14 c12 -9 11 -10 -7 -6 -12 3
-24 0 -27 -7 -2 -6 -5 -3 -5 7 -1 19 16 22 39 6z m-245 -9 c3 -5 -1 -10 -10
-10 -9 0 -13 5 -10 10 3 6 8 10 10 10 2 0 7 -4 10 -10z m39 -76 c16 -63 77
-122 91 -87 4 13 19 15 80 11 66 -4 75 -3 80 14 4 10 10 18 14 18 12 0 31 -48
31 -77 0 -19 3 -23 13 -15 8 7 23 6 49 -3 21 -7 40 -10 43 -7 3 3 5 0 5 -6 0
-16 -23 -15 -39 1 -7 6 -3 -10 9 -38 23 -56 43 -75 77 -75 46 0 41 -60 -6 -67
-13 -2 -20 1 -16 7 3 5 13 10 21 10 8 0 14 5 14 10 0 6 -18 10 -40 10 -22 0
-40 5 -40 11 0 6 -8 9 -17 7 -10 -2 -23 3 -29 11 -14 18 -44 23 -44 8 0 -8 -4
-7 -12 1 -7 7 -28 12 -47 12 -20 0 -45 8 -56 17 -19 14 -17 15 33 10 30 -4 52
-2 52 3 0 9 -14 14 -31 12 -4 -1 -2 9 4 23 7 13 15 21 19 19 4 -3 5 2 2 10 -7
18 -24 22 -24 6 0 -5 -9 -10 -19 -10 -14 0 -18 5 -14 19 4 16 -1 18 -38 18
-38 0 -41 -1 -24 -13 12 -9 14 -14 6 -14 -8 0 -19 7 -26 16 -6 9 -19 15 -28
13 -15 -4 -16 -7 -2 -33 9 -16 13 -31 10 -34 -3 -3 0 -11 6 -19 7 -8 8 -13 1
-13 -5 0 -15 7 -22 15 -10 12 -16 13 -26 4 -9 -8 -14 -8 -14 -1 0 6 9 14 20
17 11 3 20 11 20 16 0 6 -4 8 -8 5 -5 -3 -19 2 -31 10 -17 12 -19 19 -11 29 7
8 7 15 1 19 -12 8 -31 -47 -24 -73 3 -12 10 -21 16 -21 8 0 8 -3 0 -11 -8 -8
-17 -8 -31 0 -33 17 -50 13 -27 -7 12 -9 24 -25 27 -34 5 -13 2 -16 -14 -13
-11 2 -26 9 -34 16 -8 6 -14 8 -14 4 0 -4 -6 -2 -13 4 -17 13 -27 5 -27 -23 0
-20 0 -20 -15 0 -11 14 -14 15 -15 4 0 -8 -10 -16 -23 -17 -12 -2 -33 -4 -46
-5 -13 -2 -26 3 -28 10 -3 8 6 12 29 12 18 0 51 11 73 24 30 19 43 22 53 13
11 -9 12 -4 7 24 -7 37 18 79 48 79 22 0 27 34 12 95 -12 53 -4 71 9 19z
m-734 -21 c0 -5 -7 -26 -14 -48 -16 -45 -28 -191 -16 -178 5 4 11 29 13 55 6
53 47 178 60 178 4 0 6 -19 3 -42 -3 -24 -8 -62 -10 -85 -3 -24 -14 -56 -25
-72 -12 -16 -21 -34 -21 -40 0 -6 -2 -11 -4 -11 -2 0 -11 -3 -19 -6 -34 -13
-30 163 5 234 11 21 28 30 28 15z m929 -168 c3 -19 3 -19 -17 -2 -13 12 -22
15 -27 8 -9 -16 -22 -13 -29 5 -5 12 1 15 32 12 28 -2 38 -8 41 -23z m606 -22
c4 -17 2 -23 -8 -23 -9 0 -16 13 -19 35 -3 28 -1 33 8 23 6 -7 15 -23 19 -35z
m-240 18 c-6 -5 -29 -12 -53 -14 -51 -5 -43 10 8 16 19 2 39 5 45 5 6 1 6 -1
0 -7z m185 -21 c0 -5 -4 -10 -10 -10 -5 0 -10 5 -10 10 0 6 5 10 10 10 6 0 10
-4 10 -10z m-645 -9 c3 -6 -2 -14 -12 -19 -15 -9 -14 -13 10 -42 27 -32 37
-75 15 -68 -6 2 -16 17 -21 34 -5 16 -16 37 -25 47 -8 9 -11 17 -6 17 5 0 2 5
-6 10 -13 9 -13 11 0 20 19 12 37 13 45 1z m-810 -77 c-3 -24 -10 -46 -16 -49
-14 -9 -11 99 4 114 16 17 21 -7 12 -65z m883 32 c2 -18 0 -26 -7 -21 -6 3
-11 13 -11 20 0 9 -6 12 -15 9 -9 -4 -15 0 -15 9 0 8 9 14 23 13 16 -1 23 -8
25 -30z m692 8 c0 -8 -4 -12 -10 -9 -5 3 -10 13 -10 21 0 8 5 12 10 9 6 -3 10
-13 10 -21z m-1120 -6 c0 -7 -26 -21 -58 -32 -31 -10 -63 -21 -69 -23 -7 -3
-13 -1 -13 5 0 5 11 13 25 16 14 4 25 13 25 21 0 9 14 15 43 18 23 2 43 4 45
5 1 1 2 -4 2 -10z m240 -50 c0 -4 -5 -10 -12 -14 -15 -9 -38 24 -38 55 l0 26
25 -30 c13 -16 24 -33 25 -37z m256 17 c-15 -29 -7 -65 14 -65 6 0 10 -4 10
-10 0 -5 -15 -10 -32 -10 -24 0 -29 3 -18 10 13 8 13 10 0 14 -8 3 -28 6 -44
8 -16 2 -32 9 -34 17 -3 8 0 11 6 7 6 -3 12 0 15 6 3 9 10 7 21 -7 16 -21 18
-19 20 35 1 17 6 24 18 22 9 -1 20 3 24 10 15 24 15 -9 0 -37z m348 -1 c13
-33 7 -64 -13 -64 -17 0 -41 42 -41 71 0 16 48 9 54 -7z m-1337 -16 c-3 -8 -6
-5 -6 6 -1 11 2 17 5 13 3 -3 4 -12 1 -19z m673 -4 c0 -8 -4 -12 -10 -9 -5 3
-10 13 -10 21 0 8 5 12 10 9 6 -3 10 -13 10 -21z m785 16 c3 -5 12 -7 20 -3
11 4 15 -2 15 -21 0 -23 -2 -25 -26 -16 -40 16 -48 12 -30 -15 9 -13 16 -27
16 -30 0 -10 -29 -5 -42 8 -7 7 -22 18 -33 25 -19 11 -19 11 3 12 24 0 30 15
10 24 -7 4 -3 4 10 2 14 -3 25 1 29 10 6 16 19 18 28 4z m-822 -23 c4 -10 -13
-17 -55 -26 -72 -15 -178 -62 -231 -104 -44 -34 -59 -26 -55 28 4 37 32 46 43
13 7 -22 7 -22 15 7 6 25 8 27 15 12 6 -15 9 -15 19 -3 6 7 41 23 78 35 36 12
72 29 78 37 16 18 86 19 93 1z m167 -24 c0 -22 -2 -25 -10 -13 -13 20 -13 40
0 40 6 0 10 -12 10 -27z m-460 2 c0 -9 -6 -12 -16 -8 -13 5 -13 7 -2 14 17 11
18 11 18 -6z m694 -7 c3 -13 0 -27 -6 -33 -8 -7 -9 -6 -4 2 4 7 2 22 -4 33 -6
11 -7 20 -2 20 6 0 12 -10 16 -22z m-108 -27 c-8 -7 -19 -10 -25 -7 -19 12
-12 24 14 22 20 -1 22 -3 11 -15z m-76 -1 c0 -5 -4 -10 -10 -10 -5 0 -10 5
-10 10 0 6 5 10 10 10 6 0 10 -4 10 -10z m-35 -30 c3 -5 -1 -10 -9 -10 -9 0
-16 5 -16 10 0 6 4 10 9 10 6 0 13 -4 16 -10z m536 -4 c15 -3 29 -12 32 -20 5
-12 -4 -10 -41 5 -51 22 -69 35 -37 26 11 -3 32 -8 46 -11z m-634 -2 c-3 -3
-12 -4 -19 -1 -8 3 -5 6 6 6 11 1 17 -2 13 -5z m733 2 c0 -3 -4 -8 -10 -11 -5
-3 -10 -1 -10 4 0 6 5 11 10 11 6 0 10 -2 10 -4z m50 -26 c0 -5 -4 -10 -10
-10 -5 0 -10 5 -10 10 0 6 5 10 10 10 6 0 10 -4 10 -10z m194 -40 l7 -25 -15
25 c-17 28 -21 50 -7 35 5 -6 12 -21 15 -35z m-1411 -21 c-7 -24 -8 -22 -17
15 -6 25 -5 28 7 17 8 -6 13 -21 10 -32z m1352 10 c2 -9 -3 -16 -9 -16 -6 0
-12 9 -12 19 0 22 18 19 21 -3z m-785 -31 c-1 -26 -3 -30 -10 -16 -6 9 -7 23
-4 32 9 25 14 19 14 -16z m775 -40 c-10 -44 -29 -62 -45 -43 -10 12 -8 16 10
23 12 4 21 11 21 15 -3 25 0 37 10 37 7 0 8 -11 4 -32z m-768 -35 c-3 -10 -5
-4 -5 12 0 17 2 24 5 18 2 -7 2 -21 0 -30z m10 -75 c-3 -7 -5 -2 -5 12 0 14 2
19 5 13 2 -7 2 -19 0 -25z m-411 -169 c-5 -26 -4 -30 8 -20 18 15 32 -4 17
-23 -12 -14 -5 -46 12 -58 6 -3 10 -20 10 -38 0 -20 3 -26 9 -18 5 9 8 9 8 1
0 -6 3 -18 6 -27 4 -10 1 -16 -9 -16 -8 0 -17 -4 -19 -9 -1 -5 -9 -11 -16 -13
-18 -4 -52 123 -46 171 8 57 14 81 20 81 4 0 4 -14 0 -31z m-60 -44 c7 -19 14
-47 14 -62 l0 -27 -25 34 c-25 34 -34 90 -14 90 5 0 17 -16 25 -35z m53 -180
c1 -18 0 -18 -15 3 -11 16 -14 31 -8 50 l7 27 7 -30 c4 -16 8 -39 9 -50z
m-573 9 c-3 -9 -6 -18 -6 -20 0 -2 -4 -4 -9 -4 -5 0 -7 9 -4 20 3 11 10 20 15
20 6 0 7 -7 4 -16z m679 -29 c-1 -11 -49 -74 -57 -75 -3 0 -11 15 -17 32 -10
27 -9 35 5 45 17 12 69 11 69 -2z m175 -123 c0 -24 -1 -25 -16 -10 -10 9 -14
24 -10 33 9 23 26 9 26 -23z m-1040 -254 c0 -5 -4 -6 -10 -3 -6 3 -7 -1 -4 -9
4 -10 1 -16 -9 -16 -17 0 -29 -23 -33 -65 -4 -46 -137 -295 -157 -295 -8 0 -1
41 12 75 35 86 55 134 69 160 60 114 87 161 95 167 13 8 37 -1 37 -14z m766
-480 c4 -5 -7 -8 -24 -8 -18 0 -32 4 -32 8 0 10 46 10 56 0z m-68 -20 c-2 -6
-10 -14 -16 -16 -7 -2 -10 2 -6 12 7 18 28 22 22 4z"/>
<path d="M1570 1956 c7 -7 13 -7 20 0 6 6 3 10 -10 10 -13 0 -16 -4 -10 -10z"/>
<path d="M1620 1859 c0 -11 5 -17 10 -14 6 4 8 11 5 16 -4 5 -1 9 4 9 6 0 11
-4 11 -10 0 -5 5 -10 10 -10 6 0 10 7 10 15 0 9 -9 15 -25 15 -19 0 -25 -5
-25 -21z"/>
<path d="M2899 2474 c11 -22 27 -46 35 -53 14 -12 16 -10 16 10 0 29 -13 51
-28 47 -6 -2 -18 6 -27 17 -11 14 -10 9 4 -21z"/>
<path d="M388 2452 c-27 -14 -48 -30 -48 -34 0 -12 72 20 95 42 27 27 9 24
-47 -8z"/>
<path d="M2415 2460 c-3 -5 -1 -10 4 -10 6 0 11 5 11 10 0 6 -2 10 -4 10 -3 0
-8 -4 -11 -10z"/>
<path d="M1180 2438 c1 -7 7 -26 16 -43 l14 -30 -5 34 c-3 18 -5 37 -5 42 0 5
-4 9 -10 9 -5 0 -10 -6 -10 -12z"/>
<path d="M2978 2402 c-55 -120 -52 -109 -34 -155 17 -43 55 -100 56 -82 0 6
-11 28 -24 49 -22 37 -22 42 -10 85 8 25 19 55 25 67 6 11 9 33 7 47 -3 26 -4
25 -20 -11z"/>
<path d="M2203 2380 c0 -30 2 -43 4 -27 2 15 2 39 0 55 -2 15 -4 2 -4 -28z"/>
<path d="M1482 2398 c2 -6 20 -23 39 -37 l34 -25 -34 37 c-37 39 -45 45 -39
25z"/>
<path d="M344 2342 c-29 -15 -77 -38 -108 -51 -31 -14 -56 -28 -56 -33 0 -11
37 -10 44 1 3 5 38 24 78 44 72 34 122 67 103 66 -5 0 -33 -13 -61 -27z"/>
<path d="M1349 2312 c5 -10 18 -25 27 -33 11 -9 9 -2 -6 19 -26 35 -36 42 -21
14z"/>
<path d="M1950 2292 c0 -10 26 -34 50 -47 8 -4 2 6 -14 23 -32 34 -36 37 -36
24z"/>
<path d="M2201 2284 c0 -11 3 -14 6 -6 3 7 2 16 -1 19 -3 4 -6 -2 -5 -13z"/>
<path d="M2332 2256 c-40 -12 -83 -33 -95 -45 -20 -21 -20 -22 -2 -13 11 6 59
25 108 43 48 17 87 33 87 35 0 7 -24 2 -98 -20z"/>
<path d="M763 2263 c9 -2 23 -2 30 0 6 3 -1 5 -18 5 -16 0 -22 -2 -12 -5z"/>
<path d="M2211 2244 c0 -11 3 -14 6 -6 3 7 2 16 -1 19 -3 4 -6 -2 -5 -13z"/>
<path d="M0 2224 c0 -12 5 -14 18 -9 9 5 35 11 57 15 39 7 38 8 -17 9 -47 1
-58 -2 -58 -15z"/>
<path d="M2050 2201 c0 -6 13 -26 30 -44 20 -22 30 -27 30 -16 0 8 -13 28 -30
44 -16 16 -30 23 -30 16z"/>
<path d="M1907 2169 c6 -8 26 -22 45 -32 l33 -19 -25 21 c-14 12 -34 27 -45
33 -17 9 -18 9 -8 -3z"/>
<path d="M2150 2091 c0 -5 5 -13 10 -16 6 -3 10 -2 10 4 0 5 -4 13 -10 16 -5
3 -10 2 -10 -4z"/>
<path d="M0 1925 c0 -32 4 -45 14 -45 18 0 29 -17 21 -30 -5 -8 -11 -7 -21 1
-11 9 -14 7 -14 -14 0 -17 7 -28 21 -32 12 -4 18 -12 15 -21 -4 -11 5 -14 38
-14 31 0 65 -11 122 -41 44 -23 80 -42 81 -43 1 -1 -4 -15 -12 -30 -14 -26
-14 -28 3 -21 9 4 25 7 34 7 10 0 15 5 12 13 -4 8 12 4 42 -11 62 -31 92 -31
34 0 -25 13 -45 29 -45 34 0 15 -16 29 -44 37 -17 5 -21 4 -16 -5 5 -8 0 -7
-14 2 -29 18 -26 27 9 35 34 6 50 23 23 23 -15 0 -16 2 -3 10 8 5 12 10 10 12
-139 102 -181 128 -203 128 -9 0 -37 11 -62 25 l-45 26 0 -46z m100 -55 c0 -5
-5 -10 -11 -10 -5 0 -7 5 -4 10 3 6 8 10 11 10 2 0 4 -4 4 -10z m133 -45 c12
-8 16 -15 10 -15 -7 0 -15 5 -18 11 -4 6 -14 8 -23 4 -8 -3 -19 0 -24 7 -5 8
-7 3 -4 -14 3 -20 0 -28 -10 -28 -21 0 -54 19 -54 31 0 6 5 7 10 4 6 -3 10 -1
10 4 0 6 7 11 15 11 8 0 15 4 15 10 0 11 41 -3 73 -25z m-168 -25 c3 -5 1 -10
-4 -10 -6 0 -11 5 -11 10 0 6 2 10 4 10 3 0 8 -4 11 -10z m166 0 c12 0 17 -4
13 -11 -3 -6 0 -15 7 -20 24 -14 1 -22 -30 -10 -30 13 -54 58 -24 47 8 -3 24
-6 34 -6z m94 -110 c3 -5 2 -10 -4 -10 -5 0 -13 5 -16 10 -3 6 -2 10 4 10 5 0
13 -4 16 -10z"/>
<path d="M2380 1830 c0 -5 5 -10 10 -10 6 0 10 5 10 10 0 6 -4 10 -10 10 -5 0
-10 -4 -10 -10z"/>
<path d="M450 1730 c20 -13 33 -13 25 0 -3 6 -14 10 -23 10 -15 0 -15 -2 -2
-10z"/>
<path d="M65 1681 c50 -69 86 -96 53 -39 -14 22 -75 88 -83 88 -3 0 11 -22 30
-49z"/>
<path d="M496 1628 c-16 -23 -23 -60 -8 -42 11 12 33 64 27 64 -2 0 -11 -10
-19 -22z"/>
<path d="M1157 1592 c-7 -39 -1 -54 13 -33 6 11 14 8 33 -15 l26 -29 -26 -27
c-15 -15 -23 -31 -19 -35 11 -11 65 58 66 82 0 30 -44 90 -68 92 -15 1 -21 -6
-25 -35z m83 -56 c0 -5 -9 -1 -20 9 -11 10 -20 25 -20 34 0 12 6 9 20 -9 11
-14 20 -29 20 -34z"/>
<path d="M227 1585 c-23 -49 -22 -81 4 -88 20 -5 20 -4 5 12 -16 17 -16 22 0
60 21 52 14 63 -9 16z"/>
<path d="M130 1594 c0 -6 7 -17 15 -24 8 -7 15 -25 15 -40 0 -17 7 -30 16 -34
23 -9 28 -1 9 14 -8 7 -15 20 -15 30 0 19 -39 72 -40 54z"/>
<path d="M1780 1580 c0 -11 92 -98 128 -121 15 -9 41 -35 57 -57 29 -40 51
-49 68 -27 4 6 10 5 16 -3 12 -20 21 7 11 33 -15 40 -71 81 -204 149 -78 40
-76 40 -76 26z"/>
<path d="M13 1514 c-19 -20 -16 -31 10 -38 13 -3 41 -20 63 -37 70 -56 171
-119 191 -119 10 0 24 5 31 12 7 7 38 12 75 11 l62 0 -55 12 c-42 9 -64 9 -96
0 -48 -14 -74 -5 -75 28 0 19 -1 20 -8 4 -6 -16 -15 -12 -76 33 -39 29 -76 54
-82 57 -18 7 -16 21 5 26 13 4 12 5 -5 6 -12 0 -23 5 -25 10 -1 5 -9 3 -15 -5z"/>
<path d="M88 1503 c7 -3 16 -2 19 1 4 3 -2 6 -13 5 -11 0 -14 -3 -6 -6z"/>
<path d="M1275 1490 c-8 -13 -1 -24 14 -19 6 3 7 10 2 18 -6 10 -10 10 -16 1z"/>
<path d="M436 1465 c-3 -9 -6 -22 -5 -28 0 -7 5 -1 10 12 5 13 8 26 5 28 -2 2
-6 -3 -10 -12z"/>
<path d="M1090 1473 c0 -5 9 -19 20 -33 l20 -25 -12 33 c-11 28 -28 44 -28 25z"/>
<path d="M390 1445 c0 -8 2 -15 4 -15 2 0 6 7 10 15 3 8 1 15 -4 15 -6 0 -10
-7 -10 -15z"/>
<path d="M1261 1444 c0 -11 3 -14 6 -6 3 7 2 16 -1 19 -3 4 -6 -2 -5 -13z"/>
<path d="M1706 1451 c22 -20 121 -98 146 -114 21 -13 27 -24 26 -50 -1 -19 2
-40 6 -48 10 -17 -48 43 -91 97 -26 32 -32 35 -32 19 -1 -27 88 -137 113 -141
10 -1 23 -7 29 -13 6 -6 20 -11 32 -10 19 0 19 1 -2 9 -39 16 -59 82 -28 93
16 7 29 -8 20 -22 -3 -5 -1 -12 5 -16 5 -3 11 2 11 12 1 10 5 5 9 -12 l8 -30
1 28 c0 15 6 27 11 27 26 0 3 18 -62 49 -39 19 -100 56 -135 83 -56 42 -95 65
-67 39z"/>
<path d="M1180 1423 c0 -6 27 -40 60 -75 49 -51 56 -55 35 -24 -17 27 -22 43
-15 50 16 16 12 26 -10 26 -11 0 -20 -6 -20 -12 -1 -7 -12 1 -25 17 -14 17
-25 25 -25 18z"/>
<path d="M2232 1400 c0 -19 2 -27 5 -17 2 9 2 25 0 35 -3 9 -5 1 -5 -18z"/>
<path d="M490 1410 c0 -5 5 -10 10 -10 6 0 10 5 10 10 0 6 -4 10 -10 10 -5 0
-10 -4 -10 -10z"/>
<path d="M1175 1342 c9 -18 23 -32 30 -32 7 0 22 -3 32 -6 15 -5 15 -3 -2 7
-11 6 -33 23 -48 38 l-28 25 16 -32z"/>
<path d="M1951 1344 c0 -11 3 -14 6 -6 3 7 2 16 -1 19 -3 4 -6 -2 -5 -13z"/>
<path d="M159 1307 c16 -41 15 -43 -34 -71 -25 -15 -45 -31 -45 -36 0 -17 16
-11 56 21 35 27 39 29 45 12 6 -15 8 -15 8 -2 1 21 -19 81 -31 94 -5 6 -4 -3
1 -18z"/>
<path d="M2 1290 c0 -14 2 -19 5 -12 2 6 2 18 0 25 -3 6 -5 1 -5 -13z"/>
<path d="M2192 1288 c-18 -18 -14 -38 7 -38 22 0 45 25 36 40 -8 13 -28 13
-43 -2z"/>
<path d="M1460 1267 c0 -7 6 -19 13 -26 10 -11 9 -13 -1 -7 -6 4 -2 -10 10
-30 12 -21 17 -34 10 -30 -7 4 -12 1 -12 -8 0 -9 5 -15 12 -13 6 1 13 -7 15
-18 3 -15 2 -16 -5 -7 -8 11 -10 11 -15 -1 -3 -9 1 -18 8 -21 17 -6 20 -1 29
47 6 31 4 42 -11 53 -13 10 -15 16 -6 21 8 6 6 14 -7 31 -20 24 -40 29 -40 9z"/>
<path d="M2156 1221 c-8 -12 4 -42 13 -37 4 3 8 -11 8 -30 1 -28 -2 -34 -14
-29 -13 4 -14 3 -3 -10 7 -8 16 -15 20 -15 12 0 37 92 31 114 -5 19 -6 19 -9
3 -2 -10 -9 -16 -15 -14 -7 3 -11 10 -9 16 2 13 -14 15 -22 2z"/>
<path d="M1265 1199 c-4 -6 -4 -13 -1 -16 3 -4 6 -1 6 5 0 6 8 13 18 15 15 4
15 5 0 6 -9 0 -20 -4 -23 -10z"/>
<path d="M1557 1179 c4 -13 8 -18 11 -10 2 7 -1 18 -6 23 -8 8 -9 4 -5 -13z"/>
<path d="M192 1170 c0 -14 2 -19 5 -12 2 6 2 18 0 25 -3 6 -5 1 -5 -13z"/>
<path d="M129 1131 c20 -21 52 -56 71 -78 19 -21 32 -35 28 -29 -5 5 -8 21 -8
35 0 13 -2 22 -5 19 -3 -3 -28 16 -54 43 -58 58 -85 67 -32 10z"/>
<path d="M1278 1163 c7 -3 16 -2 19 1 4 3 -2 6 -13 5 -11 0 -14 -3 -6 -6z"/>
<path d="M201 1124 c0 -11 3 -14 6 -6 3 7 2 16 -1 19 -3 4 -6 -2 -5 -13z"/>
<path d="M255 1060 c4 -6 11 -8 16 -5 14 9 11 15 -7 15 -8 0 -12 -5 -9 -10z"/>
<path d="M1505 1050 c-4 -7 -19 -10 -36 -6 -27 5 -27 4 -22 -31 7 -42 46 -106
58 -95 5 4 5 -2 0 -13 -4 -11 -7 -27 -7 -35 1 -36 -8 -44 -24 -21 -10 14 -24
21 -37 19 -18 -2 -21 -9 -19 -35 2 -18 -1 -41 -7 -50 -10 -17 -10 -17 -11 1 0
11 -3 17 -6 13 -9 -8 6 -48 16 -42 4 3 8 -23 8 -58 0 -53 -1 -58 -10 -37 -10
23 -11 23 -16 5 -2 -11 -9 -26 -14 -32 -6 -8 -7 -32 -3 -60 15 -104 -34 11
-58 134 -7 41 -20 75 -35 90 -12 14 -30 36 -39 49 -9 14 -18 23 -20 20 -5 -5
42 -82 55 -90 13 -8 5 -68 -10 -77 -20 -13 -29 1 -22 36 7 40 -16 90 -46 98
-17 4 -20 0 -20 -25 0 -17 7 -36 14 -42 8 -6 18 -24 22 -41 l7 -30 -22 23
c-33 33 -34 27 -6 -24 15 -27 30 -76 36 -122 7 -42 16 -83 21 -89 6 -7 8 -19
5 -27 -5 -12 -13 -13 -41 -5 -39 11 -96 -10 -96 -35 0 -8 -9 -16 -19 -19 -15
-3 -18 -1 -14 12 5 14 3 14 -13 -2 -16 -15 -17 -19 -4 -27 8 -5 21 -8 28 -5 7
2 18 -10 26 -28 l14 -32 1 32 c1 39 10 63 23 63 6 0 7 -11 4 -25 -4 -14 -2
-25 4 -25 5 0 10 -9 10 -20 0 -25 8 -25 39 -1 27 21 51 18 51 -6 0 -19 40 -52
63 -53 14 0 17 9 17 44 0 25 5 57 11 73 10 26 12 27 20 8 4 -11 5 -45 2 -75
-5 -54 -4 -58 33 -98 31 -35 52 -47 116 -67 44 -14 87 -25 98 -25 18 0 60 -48
60 -69 0 -19 -135 -18 -157 1 -19 16 -16 -7 3 -26 8 -9 23 -16 32 -16 9 0 26
-7 36 -15 23 -17 76 -20 76 -5 0 7 6 7 19 0 30 -15 41 -12 51 15 7 19 6 36 -4
60 -21 50 -5 52 21 3 12 -24 22 -37 23 -30 0 7 -7 23 -16 36 -9 14 -11 27 -6
30 14 9 41 -37 48 -83 l7 -41 88 0 c55 0 89 4 89 10 0 6 -7 13 -15 16 -8 3
-17 16 -21 27 -7 24 -60 78 -68 69 -3 -2 -12 1 -21 8 -19 16 -19 64 0 83 10
11 13 25 8 48 -4 23 -3 30 5 25 7 -4 12 -13 12 -20 0 -7 15 -43 34 -81 19 -38
32 -73 30 -77 -3 -5 0 -8 6 -8 6 0 25 -23 42 -50 l31 -50 123 0 c68 0 124 2
124 4 0 9 -69 196 -85 230 -19 40 -30 50 -45 41 -7 -4 -7 -13 0 -26 6 -11 8
-25 4 -31 -4 -6 -17 8 -31 36 -13 26 -21 51 -18 56 3 6 1 10 -4 10 -6 0 -11 5
-11 10 0 6 -9 20 -20 32 -17 19 -27 48 -17 48 2 0 25 -20 51 -44 28 -26 58
-43 71 -43 13 0 31 -8 40 -17 9 -9 25 -16 36 -16 26 0 24 -15 -6 -38 -14 -11
-25 -27 -25 -35 0 -9 11 -37 25 -63 14 -26 25 -53 25 -60 0 -8 5 -14 11 -14 5
0 17 -16 25 -35 8 -19 17 -35 19 -35 3 0 -2 17 -11 37 -9 21 -18 44 -21 51 -3
6 2 12 11 12 14 0 15 13 12 93 -2 50 -7 100 -11 110 -10 25 7 20 27 -7 10 -14
18 -45 19 -77 1 -30 8 -63 16 -74 16 -24 16 -69 -1 -117 l-13 -37 318 -1 319
0 0 112 0 112 -32 28 c-18 16 -39 26 -45 23 -7 -2 -12 1 -10 7 1 7 -7 13 -18
14 -11 0 -35 8 -52 18 -18 9 -45 17 -60 17 -40 2 -144 39 -168 60 -30 26 -137
80 -144 73 -3 -4 0 -9 7 -11 16 -6 15 -23 -2 -23 -7 0 -35 25 -61 55 -26 31
-50 54 -53 51 -2 -3 10 -21 27 -41 17 -20 28 -41 25 -47 -4 -7 -2 -8 4 -4 7 4
12 2 12 -3 0 -10 -22 -16 -44 -12 -5 1 -4 -4 2 -12 14 -16 6 -27 -19 -27 -10
0 -20 9 -24 19 -3 10 -19 24 -35 31 -17 7 -30 16 -30 21 0 5 -12 14 -27 20
-16 7 -23 13 -15 16 14 5 17 33 3 33 -4 0 -16 27 -25 59 -9 33 -21 61 -27 63
-7 2 -6 17 5 42 23 54 20 57 -9 11 -13 -22 -25 -33 -25 -25 0 9 4 20 10 26 11
11 2 84 -11 84 -5 0 -9 -16 -9 -35 0 -19 -8 -49 -18 -67 -19 -33 -19 -58 -1
-58 13 0 57 -50 64 -73 4 -9 11 -15 16 -12 5 4 9 -1 9 -9 0 -19 -23 -33 -28
-18 -2 7 -8 10 -12 7 -5 -3 -21 12 -34 34 -14 22 -35 42 -46 46 -15 5 -19 12
-15 23 4 10 9 31 11 47 4 26 3 25 -10 -8 -25 -67 -89 -102 -170 -92 -45 6 -55
11 -76 43 -32 47 -158 170 -167 163 -3 -3 -3 0 1 6 4 7 -4 36 -18 65 -14 29
-34 76 -45 103 -11 28 -20 44 -20 37 -1 -7 6 -29 14 -49 19 -44 19 -52 1 -27
-24 32 -27 10 -7 -51 11 -33 18 -62 15 -66 -2 -4 0 -9 5 -11 4 -1 18 -23 30
-48 l21 -45 -23 27 c-38 46 -79 117 -72 128 3 5 2 10 -4 10 -5 0 -17 22 -26
49 -15 47 -15 50 5 85 12 19 20 41 17 48 -3 7 -12 -3 -20 -22 -9 -19 -16 -29
-17 -22 0 7 -4 11 -8 8 -5 -3 -7 -18 -4 -34 2 -16 -1 -33 -7 -37 -8 -4 -10 2
-7 20 5 25 -19 65 -33 57 -3 -2 -7 1 -9 7 -2 6 8 11 22 11 24 0 44 16 33 26
-3 3 -8 0 -12 -6z m35 -285 c11 -13 10 -14 -4 -9 -9 3 -16 10 -16 15 0 13 6
11 20 -6z m43 -168 c16 -17 34 -27 42 -23 10 4 15 -1 15 -14 0 -11 3 -20 8
-20 4 0 13 -10 21 -21 12 -20 8 -26 -48 -83 -34 -34 -59 -65 -56 -68 3 -3 2
-31 -3 -62 -7 -42 -6 -56 3 -56 13 0 28 -40 19 -49 -2 -3 -13 4 -23 15 -27 27
-50 112 -40 149 8 28 -4 50 -22 39 -16 -10 -24 157 -13 254 l5 44 32 -39 c18
-21 44 -51 60 -66z m-154 -12 l0 -20 -9 20 c-5 11 -9 27 -9 35 -1 13 0 13 9 0
5 -8 9 -24 9 -35z m594 -26 c-11 -12 -29 -19 -39 -17 -15 4 -12 8 16 20 47 22
48 21 23 -3z m-698 -35 c9 -4 21 -18 26 -32 8 -22 6 -29 -11 -42 -13 -10 -22
-28 -22 -48 -2 -69 -58 -62 -58 7 0 20 9 53 19 73 11 19 17 39 14 42 -8 8 11
8 32 0z m69 -39 c5 -22 4 -26 -4 -15 -5 8 -10 24 -10 34 0 26 6 18 14 -19z
m543 3 c-3 -7 -5 -2 -5 12 0 14 2 19 5 13 2 -7 2 -19 0 -25z m278 -94 c4 -21
12 -43 18 -47 7 -5 2 -7 -13 -5 -21 3 -25 8 -24 36 1 21 -3 32 -12 32 -8 0
-14 10 -14 24 0 14 -4 28 -10 31 -5 3 -10 12 -10 18 1 26 58 -53 65 -89z m81
29 c35 -31 62 -58 60 -61 -2 -2 -17 8 -33 21 -87 77 -107 97 -100 97 5 0 37
-26 73 -57z m-587 18 c3 -1 -3 -7 -13 -14 -13 -10 -16 -20 -12 -35 11 -32 54
-28 104 9 23 17 42 29 42 26 0 -28 -45 -123 -67 -141 -16 -13 -35 -36 -43 -50
l-14 -26 -12 30 c-8 17 -11 44 -7 61 5 24 3 28 -11 23 -10 -4 -27 5 -47 27
l-31 33 38 32 c20 18 44 30 53 29 9 -2 18 -4 20 -4z m-499 -41 c0 -5 7 -10 15
-10 8 0 15 -4 15 -9 0 -5 -13 -4 -30 2 -32 12 -40 27 -15 27 8 0 15 -4 15 -10z
m303 -31 c-4 -16 -8 -17 -14 -7 -13 19 -11 28 5 28 9 0 12 -7 9 -21z m937 -60
c0 -5 5 -9 12 -9 6 0 22 -10 35 -22 20 -19 23 -19 23 -4 0 9 -13 22 -30 29
-27 12 -28 13 -10 25 27 17 26 17 44 -33 8 -25 11 -43 5 -40 -24 15 1 -34 34
-66 20 -21 37 -43 37 -50 0 -10 -3 -10 -12 -1 -8 8 -17 6 -36 -8 -33 -27 -43
-25 -77 10 -26 27 -28 33 -17 51 8 12 10 24 6 27 -4 4 -9 1 -11 -5 -3 -7 -11
-13 -19 -13 -16 0 -20 45 -4 55 6 3 10 15 10 26 0 17 -11 24 -33 20 -5 -1 -6
3 -3 8 4 5 2 12 -4 16 -6 4 -8 11 -5 16 7 10 55 -18 55 -32z m-460 -33 c-1
-29 -1 -30 -15 -12 -8 11 -15 31 -15 44 0 21 2 22 15 12 8 -7 15 -27 15 -44z
m-500 24 c0 -5 -5 -10 -11 -10 -5 0 -7 5 -4 10 3 6 8 10 11 10 2 0 4 -4 4 -10z
m142 -20 c0 -11 1 -25 2 -32 1 -6 -5 -13 -11 -15 -9 -3 -13 7 -13 31 0 37 19
51 22 16z m408 -43 c13 -31 34 -61 51 -73 16 -10 31 -31 35 -46 6 -31 -3 -85
-16 -93 -9 -6 -80 113 -80 135 0 6 7 10 14 7 9 -4 3 13 -15 40 -16 26 -29 58
-29 71 0 34 15 19 40 -41z m110 -56 c-8 -2 -21 6 -28 18 -8 11 -20 21 -27 21
-13 0 -25 21 -25 46 0 7 21 -8 48 -34 32 -32 42 -48 32 -51z m-96 -113 c9 -17
16 -38 15 -47 0 -14 -36 53 -38 72 -2 16 8 5 23 -25z m566 -5 c0 -7 -4 -13
-10 -13 -5 0 -10 12 -10 28 0 21 2 24 10 12 5 -8 10 -21 10 -27z"/>
<path d="M1570 470 c6 -11 13 -20 16 -20 2 0 0 9 -6 20 -6 11 -13 20 -16 20
-2 0 0 -9 6 -20z"/>
<path d="M2281 996 c2 -2 56 -6 119 -9 77 -4 102 -3 75 3 -39 9 -203 14 -194
6z"/>
<path d="M2211 974 c0 -11 3 -14 6 -6 3 7 2 16 -1 19 -3 4 -6 -2 -5 -13z"/>
<path d="M1445 950 c3 -5 8 -10 11 -10 2 0 4 5 4 10 0 6 -5 10 -11 10 -5 0 -7
-4 -4 -10z"/>
<path d="M2154 935 c-10 -8 -14 -14 -9 -14 6 0 19 6 29 14 11 8 15 15 10 15
-6 0 -19 -7 -30 -15z"/>
<path d="M2580 942 c0 -6 8 -16 18 -21 23 -12 405 -25 398 -13 -3 5 -92 12
-198 16 -108 4 -198 12 -205 18 -9 7 -13 7 -13 0z"/>
<path d="M1411 908 c-1 -28 12 -37 24 -18 3 6 2 10 -4 10 -5 0 -12 8 -14 18
-3 10 -5 6 -6 -10z"/>
<path d="M1145 900 c-3 -5 -1 -10 4 -10 6 0 11 5 11 10 0 6 -2 10 -4 10 -3 0
-8 -4 -11 -10z"/>
<path d="M2472 895 c15 -16 15 -19 -3 -38 -19 -21 -24 -62 -13 -104 7 -27 21
-29 49 -7 19 16 19 16 -7 12 -30 -6 -38 6 -38 52 0 18 9 35 23 47 l24 18 -26
19 c-23 17 -24 17 -9 1z"/>
<path d="M1132 850 c0 -14 2 -19 5 -12 2 6 2 18 0 25 -3 6 -5 1 -5 -13z"/>
<path d="M2737 840 c-11 -15 -22 -20 -42 -16 -16 3 -32 10 -35 17 -6 8 -13 8
-29 0 -12 -7 -19 -16 -16 -21 3 -5 -3 -13 -12 -19 -10 -6 -13 -11 -7 -11 5 0
15 5 20 10 19 19 46 0 40 -26 -5 -17 -2 -24 8 -24 8 0 17 6 20 13 3 8 10 6 22
-8 10 -13 15 -14 12 -5 -2 8 -14 19 -26 25 -12 5 -24 16 -27 24 -4 11 4 13 44
8 45 -5 48 -4 44 14 -3 10 0 19 6 19 6 0 11 5 11 10 0 17 -18 11 -33 -10z"/>
<path d="M2980 853 c-8 -3 -28 -18 -45 -33 -16 -15 -37 -30 -45 -33 -12 -4
-12 -6 3 -12 14 -6 25 0 43 20 13 16 24 32 24 37 0 4 9 8 20 8 11 0 20 5 20
10 0 6 -1 10 -2 9 -2 0 -10 -3 -18 -6z"/>
<path d="M2073 823 c9 -2 23 -2 30 0 6 3 -1 5 -18 5 -16 0 -22 -2 -12 -5z"/>
<path d="M2783 803 c9 -2 23 -2 30 0 6 3 -1 5 -18 5 -16 0 -22 -2 -12 -5z"/>
<path d="M20 760 c0 -5 5 -10 11 -10 5 0 7 5 4 10 -3 6 -8 10 -11 10 -2 0 -4
-4 -4 -10z"/>
<path d="M2608 757 c7 -8 8 -27 2 -52 -14 -68 -20 -136 -10 -130 5 3 12 27 15
53 4 26 11 65 17 86 7 30 6 41 -4 47 -20 13 -32 11 -20 -4z"/>
<path d="M2813 760 c-34 -14 -28 -21 7 -9 17 6 30 13 30 15 0 6 -12 4 -37 -6z"/>
<path d="M2750 732 c-8 -4 -16 -11 -17 -17 -1 -5 -4 -19 -8 -30 -6 -20 -6 -20
6 0 7 11 22 28 33 37 21 17 14 22 -14 10z"/>
<path d="M139 690 c-43 -47 -72 -90 -66 -97 3 -2 24 19 46 49 23 29 46 59 52
66 6 7 9 15 7 17 -2 2 -20 -14 -39 -35z"/>
<path d="M2408 723 c6 -2 18 -2 25 0 6 3 1 5 -13 5 -14 0 -19 -2 -12 -5z"/>
<path d="M1080 629 c0 -11 4 -18 10 -14 5 3 7 12 3 20 -7 21 -13 19 -13 -6z"/>
<path d="M935 570 c-9 -15 -1 -23 21 -18 15 3 16 4 1 16 -11 9 -17 10 -22 2z"/>
<path d="M32 550 c-7 -11 -8 -20 -3 -20 9 0 24 30 18 36 -1 2 -8 -6 -15 -16z"/>
<path d="M2652 497 c-24 -66 -28 -98 -13 -81 11 10 44 134 38 140 -2 2 -13
-24 -25 -59z"/>
<path d="M2270 526 c0 -2 7 -7 16 -10 8 -3 12 -2 9 4 -6 10 -25 14 -25 6z"/>
<path d="M860 506 c0 -2 7 -6 15 -10 8 -3 15 -1 15 4 0 6 -7 10 -15 10 -8 0
-15 -2 -15 -4z"/>
<path d="M910 460 c6 -11 13 -20 16 -20 2 0 0 9 -6 20 -6 11 -13 20 -16 20 -2
0 0 -9 6 -20z"/>
<path d="M1230 298 c-12 -22 -12 -22 6 -6 10 10 15 20 12 24 -4 3 -12 -5 -18
-18z"/>
<path d="M1180 211 c0 -5 17 -26 38 -48 20 -21 54 -67 75 -101 l38 -62 76 0
c76 0 76 0 52 18 -13 11 -36 25 -51 33 -53 27 -144 94 -178 131 -35 38 -50 46
-50 29z m120 -101 c0 -5 -4 -10 -10 -10 -5 0 -10 5 -10 10 0 6 5 10 10 10 6 0
10 -4 10 -10z"/>
<path d="M1896 203 c-6 -14 -5 -15 5 -6 7 7 10 15 7 18 -3 3 -9 -2 -12 -12z"/>
<path d="M1412 164 c-12 -8 -22 -19 -22 -25 0 -17 18 -9 34 16 19 29 18 30
-12 9z"/>
<path d="M1885 170 c-3 -5 -2 -10 4 -10 5 0 13 5 16 10 3 6 2 10 -4 10 -5 0
-13 -4 -16 -10z"/>
<path d="M1177 123 c3 -7 9 -13 14 -13 5 0 9 6 9 13 0 8 -6 14 -14 14 -8 0
-12 -6 -9 -14z"/>
<path d="M1440 119 c0 -11 5 -17 10 -14 6 3 10 13 10 21 0 8 -4 14 -10 14 -5
0 -10 -9 -10 -21z"/>
<path d="M1190 90 c0 -5 5 -10 12 -10 6 0 9 -3 5 -6 -7 -7 33 -54 47 -54 6 0
5 4 -2 9 -8 4 -14 12 -14 17 -2 35 -48 77 -48 44z"/>
<path d="M1457 74 c-13 -13 -7 -23 13 -21 11 1 19 6 17 11 -4 13 -21 18 -30
10z"/>
<path d="M100 34 c-12 -31 -12 -34 -1 -34 5 0 16 13 25 30 12 26 13 30 0 30
-8 0 -19 -12 -24 -26z"/>
<path d="M1055 10 c-16 -7 -11 -9 20 -9 29 -1 36 2 25 9 -17 11 -19 11 -45 0z"/>
<path d="M1278 3 c7 -3 16 -2 19 1 4 3 -2 6 -13 5 -11 0 -14 -3 -6 -6z"/>
</g>
</svg>
